<?xml version="1.0" encoding="UTF-8"?>
<svg id="Layer_1" data-name="Layer 1" xmlns="http://www.w3.org/2000/svg" viewBox="0 0 184.16 128.8">
  <defs>
    <style>
      .cls-1 {
        fill: #9dad3a;
      }

      .cls-2 {
        fill: #ffffff;
      }

      .cls-3 {
        fill: none;
        stroke: #9cad3a;
        stroke-miterlimit: 10;
      }

      .cls-4 {
        fill: #ffffff;
      }
    </style>
  </defs>
  <g>
    <path class="cls-4" d="M35.53,80.33c0,8.4-5.52,14.33-18.53,14.33H.27v-51.48h16.06c12.35,0,17.54,5.6,17.54,13.43,0,5.02-3.05,9.97-9.88,11.7,7.58,1.48,11.53,6.01,11.53,12.03ZM16.58,47.96H5.54v18.53h10.21c7.74,0,12.85-3.38,12.85-9.47,0-5.52-3.87-9.06-12.03-9.06ZM16.09,71.27H5.54v18.61h11.86c9.06,0,12.85-3.71,12.85-9.55s-5.02-9.06-14.17-9.06Z"/>
    <path class="cls-4" d="M44.09,94.66v-51.48h5.19v51.48h-5.19Z"/>
    <path class="cls-4" d="M73,94.66h-13.59v-51.48h14c16.88,0,27.26,10.21,27.26,25.37,0,16.23-10.13,26.11-27.68,26.11ZM73.08,48.04h-8.4v41.76h8.57c13.18,0,22.16-6.75,22.16-20.84,0-13.1-8.24-20.92-22.32-20.92Z"/>
    <path class="cls-4" d="M134.77,81.32c0-6.01-4.94-8.4-13.01-10.79-7.25-2.14-14.99-5.27-14.99-14.41,0-8.15,6.92-14,16.47-14,5.93,0,11.12,1.65,15.49,4.45l-1.89,4.61c-3.87-2.64-8.9-4.28-13.51-4.28-7.74,0-11.45,4.12-11.45,8.81,0,5.68,5.11,7.82,13.01,10.3,7.41,2.22,14.91,5.6,14.91,14.91,0,8.48-7.08,14.83-17.38,14.83-6.18,0-11.86-1.81-16.56-4.78l1.89-4.69c4.12,2.8,8.98,4.78,14.83,4.78,7.17,0,12.19-4.28,12.19-9.72Z"/>
  </g>
  <circle class="cls-1" cx="46.93" cy="35.99" r="4.14"/>
  <circle class="cls-1" cx="145.98" cy="92.04" r="4.14"/>
  <path class="cls-3" d="M145.98,92.04c44.21-70.47-1.6-94.64-99.05-55.7"/>
  <path class="cls-3" d="M46.93,36.18c124.59-55.77,152.32-16.48,99.05,55.87"/>
  <path class="cls-3" d="M46.93,36.34C173.17-29.39,225.36-1.16,145.98,92.04"/>
  <path class="cls-3" d="M46.93,36.34c72.84-26.55,134.44-9.27,99.05,55.7"/>
  <g>
    <path class="cls-2" d="M5.84,112.27c0,1.31-.83,2.22-2.88,2.22H0v-7.94h2.88c1.94,0,2.71.88,2.71,2.12,0,.77-.47,1.46-1.38,1.77,1.06.22,1.63.98,1.63,1.83ZM2.81,107.45h-1.8v2.63h1.75c1.16,0,1.8-.47,1.8-1.35,0-.79-.57-1.28-1.75-1.28ZM2.83,110.95h-1.82v2.63h1.94c1.3,0,1.87-.52,1.87-1.35s-.67-1.28-1.99-1.28Z"/>
    <path class="cls-2" d="M8.54,114.49v-7.94h4.96v.93h-3.96v2.57h3.3v.93h-3.3v2.59h3.96v.93h-4.96Z"/>
    <path class="cls-2" d="M17.34,114.49h-1.03v-7.94h2.44c2,0,3.03.93,3.03,2.42,0,1.18-.66,1.94-1.6,2.29l2.02,3.23h-1.18l-1.85-3-1.83.1v2.9ZM18.75,110.67c1.3-.02,2-.64,2-1.63,0-1.06-.66-1.56-2.09-1.56h-1.35v3.23l1.43-.03Z"/>
    <path class="cls-2" d="M25.84,110.31l3.45-3.77h1.3l-3.77,3.9,3.8,4.04h-1.3l-3.48-3.75h-.02v3.75h-1.03v-7.94h1.03v3.77h.02Z"/>
    <path class="cls-2" d="M32.86,114.49v-7.94h4.96v.93h-3.96v2.57h3.3v.93h-3.3v2.59h3.96v.93h-4.96Z"/>
    <path class="cls-2" d="M40.64,114.49v-7.94h1.03v7.02h3.82v.93h-4.85Z"/>
    <path class="cls-2" d="M47.97,114.49v-7.94h4.96v.93h-3.96v2.57h3.3v.93h-3.3v2.59h3.96v.93h-4.96Z"/>
    <path class="cls-2" d="M58.71,111.36v3.13h-1.03v-3.15l-2.76-4.8h1.11l2.19,3.8,2.12-3.8h1.13l-2.76,4.81Z"/>
    <path class="cls-2" d="M68.32,114.49v-7.94h1.03v7.94h-1.03Z"/>
    <path class="cls-2" d="M77.97,106.54h.98v8.03h-1.11l-4.34-6.55.02,6.46h-.98v-7.94h1.14l4.31,6.48-.02-6.48Z"/>
    <path class="cls-2" d="M85.97,112.4c0-.86-.67-1.18-1.92-1.53-1.13-.34-2.36-.82-2.36-2.29,0-1.31,1.06-2.2,2.62-2.2.96,0,1.82.25,2.51.67l-.32.91c-.64-.42-1.45-.67-2.17-.67-1.11,0-1.62.57-1.62,1.23,0,.82.72,1.11,1.94,1.46,1.14.34,2.32.88,2.32,2.34,0,1.36-1.14,2.34-2.78,2.34-.94,0-1.9-.29-2.64-.72l.3-.91c.71.44,1.45.74,2.36.74,1.04,0,1.75-.59,1.75-1.36Z"/>
    <path class="cls-2" d="M92.65,107.47v7.02h-1.03v-7.02h-2.76v-.93h6.55v.93h-2.76Z"/>
    <path class="cls-2" d="M97.86,114.49v-7.94h1.03v7.94h-1.03Z"/>
    <path class="cls-2" d="M105.11,107.47v7.02h-1.03v-7.02h-2.76v-.93h6.55v.93h-2.76Z"/>
    <path class="cls-2" d="M113.19,114.66c-1.95,0-3.08-1.16-3.08-3.11v-5h1.01v4.88c0,1.45.69,2.31,2.1,2.31,1.33,0,2.04-.79,2.04-2.31v-4.88h1.01v4.88c0,2.02-1.06,3.23-3.08,3.23Z"/>
    <path class="cls-2" d="M122.3,107.47v7.02h-1.03v-7.02h-2.76v-.93h6.55v.93h-2.76Z"/>
    <path class="cls-2" d="M127.49,114.49v-7.94h4.96v.93h-3.96v2.57h3.3v.93h-3.3v2.59h3.96v.93h-4.96Z"/>
    <path class="cls-2" d="M0,120.69h4.85v.93H1.01v2.71h3.18v.94H1.01v3.37H0v-7.94Z"/>
    <path class="cls-2" d="M10.91,128.8c-2.26,0-3.96-1.63-3.96-4.12s1.67-4.16,3.96-4.16,3.96,1.62,3.96,4.11-1.67,4.17-3.96,4.17ZM10.88,121.41c-1.68,0-2.89,1.31-2.89,3.21s1.23,3.28,2.95,3.28,2.89-1.31,2.89-3.23-1.21-3.27-2.95-3.27Z"/>
    <path class="cls-2" d="M18.62,128.63h-1.03v-7.94h2.44c2,0,3.03.93,3.03,2.42,0,1.18-.66,1.94-1.6,2.29l2.02,3.23h-1.18l-1.85-3-1.83.1v2.9ZM20.03,124.81c1.3-.02,2-.64,2-1.63,0-1.06-.66-1.56-2.09-1.56h-1.35v3.23l1.43-.03Z"/>
    <path class="cls-2" d="M32.83,128.63h-2.24v-7.94h2.32c2.62,0,4.22,1.56,4.22,3.92,0,2.47-1.57,4.02-4.31,4.02ZM32.83,121.61h-1.21v6.09h1.25c1.92,0,3.23-.99,3.23-3.03s-1.21-3.06-3.26-3.06Z"/>
    <path class="cls-2" d="M46.11,128.63h-1.03l-.77-2.12h-3.52l-.77,2.12h-1.04l2.98-7.94h1.23l2.93,7.94ZM42.56,121.65l-1.45,3.96h2.88l-1.43-3.96Z"/>
    <path class="cls-2" d="M50.88,121.61v7.02h-1.03v-7.02h-2.76v-.93h6.55v.93h-2.76Z"/>
    <path class="cls-2" d="M61.74,128.63h-1.03l-.77-2.12h-3.52l-.77,2.12h-1.04l2.98-7.94h1.23l2.93,7.94ZM58.19,121.65l-1.45,3.96h2.88l-1.43-3.96Z"/>
    <path class="cls-2" d="M72.46,126.54c0-.86-.67-1.18-1.92-1.53-1.13-.34-2.36-.82-2.36-2.29,0-1.31,1.06-2.2,2.62-2.2.96,0,1.82.25,2.51.67l-.32.91c-.64-.42-1.45-.67-2.17-.67-1.11,0-1.62.57-1.62,1.23,0,.82.72,1.11,1.94,1.46,1.14.34,2.32.88,2.32,2.34,0,1.36-1.14,2.34-2.78,2.34-.94,0-1.9-.29-2.64-.72l.3-.91c.71.44,1.45.74,2.36.74,1.04,0,1.75-.59,1.75-1.36Z"/>
    <path class="cls-2" d="M81.84,122.05c-.64-.39-1.36-.62-2.17-.62-1.68,0-2.86,1.18-2.86,3.21s1.13,3.25,2.88,3.25c.86,0,1.67-.29,2.2-.71l.2.99c-.61.37-1.51.62-2.44.62-2.34,0-3.87-1.58-3.87-4.12s1.6-4.16,3.89-4.16c.96,0,1.87.27,2.49.64l-.32.89Z"/>
    <path class="cls-2" d="M84.86,128.63v-7.94h1.03v7.94h-1.03Z"/>
    <path class="cls-2" d="M89.07,128.63v-7.94h4.96v.93h-3.96v2.57h3.3v.93h-3.3v2.59h3.96v.93h-4.96Z"/>
    <path class="cls-2" d="M102.28,120.69h.98v8.03h-1.11l-4.34-6.55.02,6.46h-.98v-7.94h1.14l4.31,6.48-.02-6.48Z"/>
    <path class="cls-2" d="M112.03,122.05c-.64-.39-1.36-.62-2.17-.62-1.68,0-2.86,1.18-2.86,3.21s1.13,3.25,2.88,3.25c.86,0,1.67-.29,2.2-.71l.2.99c-.61.37-1.51.62-2.44.62-2.34,0-3.87-1.58-3.87-4.12s1.6-4.16,3.89-4.16c.96,0,1.87.27,2.49.64l-.32.89Z"/>
    <path class="cls-2" d="M115.03,128.63v-7.94h4.96v.93h-3.96v2.57h3.3v.93h-3.3v2.59h3.96v.93h-4.96Z"/>
  </g>
</svg>
